<?xml version="1.0" standalone="no"?>
<!DOCTYPE svg PUBLIC "-//W3C//DTD SVG 20010904//EN"
 "http://www.w3.org/TR/2001/REC-SVG-20010904/DTD/svg10.dtd">
<svg version="1.0" xmlns="http://www.w3.org/2000/svg"
 width="250.000000pt" height="250.000000pt" viewBox="0 0 250.000000 250.000000"
 preserveAspectRatio="xMidYMid meet">
<metadata>
Created by potrace 1.14, written by Peter Selinger 2001-2017
</metadata>
<g transform="translate(0.000000,250.000000) scale(0.100000,-0.100000)"
fill="#000000" stroke="none">
<path d="M1036 2454 c-251 -46 -491 -176 -666 -361 -87 -93 -93 -100 -142
-175 -124 -187 -194 -418 -197 -652 -9 -599 419 -1116 1009 -1220 120 -21 332
-18 445 5 423 89 761 376 909 773 52 138 69 232 72 396 6 274 -57 491 -204
715 -66 99 -239 270 -342 336 -135 87 -312 159 -455 184 -82 14 -348 14 -429
-1z m414 -18 c14 -3 36 -8 50 -11 208 -39 439 -166 601 -329 237 -240 359
-555 346 -891 -3 -71 -8 -141 -11 -155 -4 -14 -9 -38 -11 -55 -9 -48 -44 -154
-76 -228 -156 -356 -472 -611 -860 -694 -116 -24 -363 -25 -475 -1 -297 65
-531 211 -718 451 -102 130 -196 336 -222 482 -51 293 -19 534 103 782 172
347 509 591 902 653 59 9 328 6 371 -4z"/>
<path d="M955 1468 c-4 -13 -13 -36 -20 -53 -21 -49 -155 -402 -155 -409 0 -3
22 -6 49 -6 l48 0 19 53 19 52 101 3 101 3 19 -53 19 -53 54 -3 c41 -2 52 0
49 10 -3 7 -45 118 -93 246 l-89 232 -57 0 c-51 0 -58 -3 -64 -22z m94 -174
c17 -47 31 -87 31 -90 0 -2 -29 -4 -64 -4 l-65 0 32 90 c18 49 33 90 34 90 0
0 15 -38 32 -86z"/>
<path d="M1324 1248 l1 -243 48 -3 47 -3 0 95 c0 96 0 96 25 96 22 0 31 -13
72 -95 l48 -95 52 0 c29 0 53 2 53 4 0 2 -23 47 -50 100 l-50 95 26 13 c58 28
89 105 70 169 -28 90 -67 109 -224 109 l-118 0 0 -242z m231 142 c19 -16 20
-84 0 -100 -8 -6 -41 -14 -74 -17 l-60 -6 0 71 0 70 60 -3 c32 -1 66 -8 74
-15z"/>
</g>
</svg>
